<?xml version="1.0" encoding="utf-8"?>
<!-- Generator: Adobe Illustrator 24.1.1, SVG Export Plug-In . SVG Version: 6.00 Build 0)  -->
<svg version="1.1" id="Layer_1" xmlns="http://www.w3.org/2000/svg" xmlns:xlink="http://www.w3.org/1999/xlink" x="0px" y="0px"
	 viewBox="0 0 512 512" style="enable-background:new 0 0 512 512;" xml:space="preserve">
<style type="text/css">
	.st0{fill:#E0565B;}
</style>
<g>
	<path class="st0" d="M460.5,414.6c-3.6,26.7-21.5,49.7-46.6,60c-12.3,5.1-25.6,6.7-39,5.1c-12.8-1.5-25.6-5.6-38.9-13.3
		c-18.5-10.3-36.9-26.1-58.4-49.7c33.8-41.5,54.3-79.4,62-113.3c3.6-15.9,4.1-30.2,2.6-43.6c-2-12.8-6.7-24.6-13.8-34.9
		c-15.9-23.1-42.5-36.4-72.3-36.4s-56.4,13.8-72.3,36.4c-7.2,10.2-11.8,22-13.8,34.9c-2,13.3-1.5,28.2,2.6,43.6
		c7.7,33.8,28.7,72.3,62,113.8c-21,23.6-40,39.5-58.4,49.7c-13.3,7.7-26.1,11.8-38.9,13.3c-13.8,1.5-27.2-0.5-39-5.1
		c-25.1-10.3-43-33.3-46.6-60c-1.5-12.8-0.5-25.6,4.6-40c1.5-5.1,4.1-10.2,6.7-16.4c3.6-8.2,7.7-16.9,11.8-25.6l0.5-1
		c35.4-76.4,73.3-154.3,112.8-230.1l1.5-3.1c4.1-7.7,8.2-15.9,12.3-23.6c4.1-8.2,8.7-15.9,14.3-22.6c10.8-12.3,25.1-19,41-19
		c15.9,0,30.2,6.7,41,19c5.6,6.7,10.2,14.4,14.4,22.6c4.1,7.7,8.2,15.9,12.3,23.6l1.5,3.1c38.9,76.4,76.9,154.3,112.2,230.6v0.5
		c4.1,8.2,7.7,17.4,11.8,25.6c2.6,6.2,5.1,11.3,6.7,16.4C461,388.5,462.5,401.3,460.5,414.6z M256,390.5
		c-27.7-34.8-45.6-67.7-51.8-95.3c-2.6-11.8-3.1-22-1.5-31.3c1-8.2,4.1-15.4,8.2-21.5c9.7-13.8,26.1-22.6,45.1-22.6
		c19,0,35.9,8.2,45.1,22.6c4.1,6.2,7.2,13.3,8.2,21.5c1.5,9.2,1,20-1.5,31.3C301.6,322.4,283.7,355.2,256,390.5z M487.1,363.9
		c-2.6-6.2-5.1-12.8-7.7-18.4c-4.1-9.2-8.2-17.9-11.8-26.1l-0.5-0.5C431.8,241.9,393.9,164,353.9,87.1l-1.5-3.1
		c-4.1-7.7-8.2-15.9-12.3-24.1c-5.1-9.2-10.3-19-18.5-28.2C305.2,11.3,281.6,0,256.5,0c-25.6,0-48.7,11.3-65.6,30.8
		c-7.7,9.2-13.3,19-18.4,28.2c-4.1,8.2-8.2,16.4-12.3,24.1l-1.5,3.1C119.2,163,80.7,240.9,45.4,317.8l-0.5,1
		c-3.6,8.2-7.7,16.9-11.8,26.1c-2.6,5.6-5.1,11.8-7.7,18.5c-6.7,19-8.7,36.9-6.2,55.3c5.6,38.4,31.3,70.7,66.6,85.1
		c13.3,5.6,27.2,8.2,41.5,8.2c4.1,0,9.2-0.5,13.3-1c16.9-2.1,34.3-7.7,51.2-17.4c21-11.8,41-28.7,63.6-53.3
		c22.5,24.6,43,41.5,63.5,53.3c16.9,9.7,34.3,15.4,51.3,17.4c4.1,0.5,9.2,1,13.3,1c14.4,0,28.7-2.6,41.5-8.2
		c35.9-14.3,61-47.1,66.6-85.1C495.8,400.8,493.8,382.8,487.1,363.9z"/>
</g>
</svg>
